PathFileType	4	(X/Y/Z)	/Users/visionmauri/4_2_2_f_1_Sports2D/4_2_2_f_1_Sports2D_px_person00.trc
DataRate	CameraRate	NumFrames	NumMarkers	Units	OrigDataRate	OrigDataStartFrame	OrigNumFrames
30.0	30.0	4	22	m	30.0	284	325
Frame#	Time	Hip			RHip			RKnee			RAnkle			RBigToe			RSmallToe			RHeel			LHip			LKnee			LAnkle			LBigToe			LSmallToe			LHeel			Neck			Head			Nose			RShoulder			RElbow			RWrist			LShoulder			LElbow			LWrist			
		X1	Y1	Z1	X2	Y2	Z2	X3	Y3	Z3	X4	Y4	Z4	X5	Y5	Z5	X6	Y6	Z6	X7	Y7	Z7	X8	Y8	Z8	X9	Y9	Z9	X10	Y10	Z10	X11	Y11	Z11	X12	Y12	Z12	X13	Y13	Z13	X14	Y14	Z14	X15	Y15	Z15	X16	Y16	Z16	X17	Y17	Z17	X18	Y18	Z18	X19	Y19	Z19	X20	Y20	Z20	X21	Y21	Z21	X22	Y22	Z22
284	9.495884773662551	597.6311641654004	915.970756931024	0.0	517.1076081438773	936.6864895880828	0.0	493.38583615502256	1238.9763669363447	0.0	477.6303941552819	1526.74420690282	0.0	474.4571426807251	1662.1281805661934	0.0	427.11223676035144	1643.8949708965854	0.0	498.2999152248836	1573.3814027345175	0.0	678.0280597460833	936.3469184106863	0.0	690.3406357721653	1241.9508924047047	0.0	670.0512523941845	1455.4608031525	0.0	678.1957475114582	1597.5988857752661	0.0	722.2240718207389	1575.045044815438	0.0	646.7002459099186	1481.7023933309547	0.0	565.7506722378808	456.7167225403693	0.0	523.0524891303174	274.2061877849566	0.0	494.99699435871236	402.5416495063875	0.0	438.1286884784958	529.8680638970592	0.0	369.83813797873904	721.389802017277	0.0	291.9448193668401	873.0840701145084	0.0	714.9660500941906	494.00195997326216	0.0	803.2091463367718	704.1282479935333	0.0	843.3520907201987	884.5321566366041	0.0
285	9.529320987654321	595.3681443935299	916.8871994137914	0.0	516.1336383566343	937.1494232304519	0.0	491.74144158318063	1238.8216176548779	0.0	477.74425881501577	1526.0273129702875	0.0	474.69292293732985	1659.724806254692	0.0	427.14467486959137	1641.314357173781	0.0	498.903217411326	1572.7092913836182	0.0	677.0006147346388	936.6872416985319	0.0	694.127814073655	1242.067125577179	0.0	670.8973086447562	1452.2654742687948	0.0	678.0992981920385	1597.4390733206267	0.0	721.787781698136	1574.865947144968	0.0	646.53896525706	1476.0258058553263	0.0	563.589517491124	455.7644725825661	0.0	520.3664445718206	274.3060558140704	0.0	490.0061541700704	402.7674942302443	0.0	434.63366194659955	530.7448769012801	0.0	367.0946368828097	723.92294660785	0.0	289.9709202804515	873.872809830639	0.0	712.984262958621	494.4642124984416	0.0	801.0187861027923	703.9591305674314	0.0	843.1256995917428	886.996462928463	0.0
286	9.562757201646091	592.9290612927275	918.6436681423829	0.0	515.7370209881254	938.8375334962221	0.0	490.63051825604754	1238.6335953075952	0.0	477.8606076061026	1525.8888488114958	0.0	474.3635945470347	1657.5347918651803	0.0	426.34399150998024	1639.960419142507	0.0	499.0815840990299	1571.9391745753423	0.0	676.217974735739	938.9320260579933	0.0	696.5705537348729	1242.3305523366694	0.0	671.1287211693557	1449.432938863029	0.0	680.2781232321506	1597.825898786198	0.0	722.6580972655048	1575.0241795002285	0.0	646.2080104091158	1472.2258872254333	0.0	561.4649510703533	456.66276614292406	0.0	519.2335944978488	274.35700247161907	0.0	486.9306026143868	402.76391714266543	0.0	432.38424089812196	532.3983852279009	0.0	364.91419033356016	726.6829957911558	0.0	289.0019640033074	875.044517537746	0.0	710.945094801476	494.26072004217605	0.0	800.2224469216407	703.9307434204134	0.0	843.5461393878184	888.6077840568266	0.0
287	9.59619341563786	592.0763994776157	918.8160532034276	0.0	515.7003544490308	939.696815796932	0.0	490.2796213670479	1238.7437354824863	0.0	477.8713894495589	1527.3408491730909	0.0	473.3941125355048	1657.7938618439396	0.0	425.7439673263616	1641.5358696455596	0.0	499.02558607696704	1572.044954943242	0.0	676.2561070774076	939.8548152523001	0.0	697.0703831138101	1242.7734719887144	0.0	671.6630300394742	1448.5469320164163	0.0	683.9189969213506	1599.207007642674	0.0	726.173846033848	1576.9879976063974	0.0	646.3321882926895	1471.3306931014072	0.0	559.2591899841407	459.01415102139043	0.0	518.9985027776878	273.3255543665375	0.0	486.7154023448983	401.68405589335185	0.0	431.4034627050787	534.0079601047403	0.0	363.250210096589	728.0473521262231	0.0	288.5076968395049	875.6811649674253	0.0	709.564994625201	493.9548685359375	0.0	800.3254368292451	703.8555881079754	0.0	843.8636823911427	889.0727906391493	0.0
